Patient4_TMGait_0pt8_01_right_24_EMG.mot
version=1
nRows=36
nColumns=33
inDegrees=no
endheader
time	1LAddLong	2LGlutMax	3LGlutMed	4LIliopsoas	5LSemiMemb	6LBicFemLong	7LRecFem	8LVastMed	9LVastLat	10LGasMed	11LTibAnt	12lTibPost	13LPeroneusLong	14LSol	15LExtDigLong	16LFlexDigLong	17RAddLong	18RGlutMax	19RGlutMed	20RIliopsoas	21RSemiMemb	22RBicFemLong	23RRecFem	24RVastMed	25RVastLat	26RGasMed	27RTibAnt	28RTibPost	29RPeroneusLong	30RSol	31RExtDigLong	32RFlexDigLong
26.79	0.006714	-0.32959	0.000153	-0.003204	0.011444	-0.03006	0.15488	-0.005493	-0.060272	-0.001831	-0.085297	-0.044403	0.001984	0.12421	0.046997	-0.22598	-0.005341	-0.03891	0.36011	0.048065	0.15335	0.055695	-0.075226	-0.084381	-0.059204	-0.009613	0.083466	-0.007477	-0.63461	-0.028381	-0.000305	0.004883
26.791	0.005646	-0.383	-0.043793	0.009918	0.029602	-0.037079	0.094604	0.002441	-0.12314	0.015106	0.001068	0.012054	-0.018616	-0.32028	0.048676	-0.044708	-0.023956	-0.063782	0.33569	-0.013428	0.1648	0.063629	-0.015717	-0.11581	-0.050812	-0.018463	0.11887	-0.008698	-1.0086	-0.01709	-0.001068	-0.004883
26.792	0.011139	-0.37125	-0.1152	0.01709	0.041199	0.012665	0.059052	0.004272	-0.016479	0.034943	0.090332	0.029602	0.12344	-0.52551	0.077362	0.12451	-0.042114	-0.12848	0.31128	-0.021057	0.14526	0.050049	0.04425	-0.037079	-0.058594	-0.022736	0.11963	-0.008087	-0.47195	-0.010681	0.010376	-0.003052
26.793	0.003204	-0.39429	-0.13397	0.017395	0.029297	0.13931	0.10254	-0.001984	0.11368	0.015411	0.13367	0.024719	0.10498	-0.3154	0.066223	0.02594	0.014496	-0.13016	0.41184	-0.013275	0.1445	0.059357	0.18692	-0.033875	-0.056763	-0.031586	0.15747	-0.01236	0.38101	0.032654	-0.002899	-0.00412
26.794	-0.003204	-0.40192	-0.10971	0.033264	0.017242	0.16846	0.16556	-0.005188	0.048218	-0.0354	0.056763	0.002899	0.013428	-0.094299	0.046997	-0.012207	0.095215	-0.13199	0.44022	0.009003	0.1384	0.06424	0.18845	-0.075226	-0.067749	-0.022278	0.39978	-0.008392	0.27496	-0.037231	0.000458	-0.000305
26.795	0.002747	-0.40634	-0.076904	0.007172	0.021057	0.23361	0.14435	-0.007324	0.032654	-0.005188	-0.026398	0.019531	-0.19394	0.033112	0.032043	-0.02533	0.092316	-0.18341	0.41168	-0.008545	0.12955	0.069885	0.14969	-0.068817	-0.065155	-0.020294	0.58502	-0.007629	0.07431	-0.01358	-0.000153	-0.001831
26.796	0.006409	-0.39688	-0.080109	-0.010376	0.027008	0.21881	0.14297	-0.002441	0.018158	-0.026855	-0.019989	0.023956	-0.15854	0.04715	0.048676	-0.025177	0.099945	-0.16937	0.50339	0.011444	0.13016	0.06012	0.065308	-0.1297	-0.057831	-0.027924	0.77789	-0.011749	-0.10147	0.067444	0.000153	-0.012817
26.797	0.006256	-0.39169	-0.052948	-0.009003	0.020294	-0.15961	0.14206	-0.005341	0.013733	-0.012817	-0.027466	0.020294	-0.12299	0.055695	-0.019226	-0.028992	0.095673	-0.18387	0.38162	0.009308	0.12695	0.067444	-0.019379	-0.12985	-0.06073	-0.0354	0.48981	-0.01297	-0.10147	0.11353	0.00061	-0.023193
26.798	0.009918	-0.37933	-0.015717	-0.005951	0.012817	-0.32654	0.1445	-0.005646	0.034027	-0.029449	-0.010986	0.02533	0.014343	0.013733	-0.06012	-0.029755	0.040283	-0.11643	0.34698	-0.046387	0.12772	0.093536	0.028381	-0.13001	-0.05188	-0.040741	-0.27771	0.001068	0.046082	0.072479	-0.001373	-0.00824
26.799	0.005798	-0.39978	-0.15472	0.007629	0.009613	-0.31952	0.10513	0.010071	-0.004578	-0.036621	-0.22583	0.01709	0.041504	0.025177	0.074615	-0.01236	-0.018616	-0.11826	0.59998	-0.13947	0.12131	0.10071	0.22644	-0.096741	-0.043488	-0.050354	-0.51514	-0.008545	0.13809	0.048981	-0.002289	-0.010071
26.8	-0.001068	-0.38269	-0.047913	0.018158	0.019226	-0.24002	0.1294	0.003204	-0.040588	-0.031738	-0.14313	0.020447	0.005646	0.095215	0.26367	-0.005188	-0.007019	-0.11673	0.72998	-0.11154	0.10468	0.091858	0.30624	-0.11093	-0.058441	-0.061035	-0.34836	-0.003662	-0.168	0.000916	-0.001373	-0.014496
26.801	0.003815	-0.39917	-0.02182	-0.000763	0.010681	-0.040131	0.18265	0.023041	-0.019684	-0.033417	0.082855	0.036163	-0.046387	0.13962	0.10513	-0.022583	-0.010223	-0.16251	0.39749	-0.002136	0.097809	0.10284	0.21484	-0.08606	-0.036621	-0.06012	-0.097656	-0.009003	-0.18234	-0.054321	-0.002289	-0.002747
26.802	-0.001984	-0.39993	-0.008545	0.005951	0.007629	-0.003204	0.18585	-0.032196	0.004578	0.031738	0.059509	0.023956	0.00412	0.24567	0.076752	-0.000916	-0.035858	-0.16266	0.43427	0.06485	0.08255	0.10223	0.050659	-0.084534	-0.037384	-0.057678	-0.11719	-0.007935	0.29114	-0.051422	-0.009003	-0.00885
26.803	0.00351	-0.39383	-0.039825	0.014038	0.010529	0.043793	0.080566	0.011749	0.075836	0.07431	-0.010681	0.019989	0.12009	0.2211	-0.082092	-0.012817	-0.065918	-0.19257	0.45883	0.078278	0.092316	0.11032	-0.013275	-0.092316	-0.04776	-0.062408	-0.17425	-0.007935	0.62851	-0.050964	-0.00061	-0.007477
26.804	0.002899	-0.33508	-0.10422	0.014496	0.018921	0.051727	0.002441	-0.00351	0.17685	0.037537	0.11551	0.016937	0.093536	0.18417	0.23224	0.000153	-0.067902	-0.17746	0.38452	0.077209	0.072937	0.097809	0.064392	-0.068665	-0.032501	-0.06134	-0.17151	-0.008698	0.85159	-0.086365	-0.002136	-0.004425
26.805	0.010071	-0.31555	-0.076447	0.016174	0.014343	-0.049133	0.09964	-0.010681	0.15976	0.041504	0.21881	0.01236	0.012054	-0.048065	0.014954	-0.004578	-0.052795	-0.17609	0.45624	0.02655	0.088348	0.12528	-0.046539	-0.070953	-0.058899	-0.053101	-0.087585	-0.003815	0.00824	-0.086975	-0.007324	0.002136
26.806	-0.003357	-0.2565	0.057526	0.011597	0.00824	-0.030212	0.20462	-0.009155	-0.052185	0.056	0.23987	0.013123	-0.059509	-0.067596	-0.1355	-0.000763	-0.04364	-0.19196	0.46371	-0.008698	0.097046	0.12909	-0.13519	-0.024414	-0.047302	-0.033264	-0.063171	-0.005188	-1.2744	-0.14862	-0.003662	-0.014801
26.807	0	-0.22186	0.050964	0.012665	0.015564	-0.077362	0.15167	0.000763	-0.17914	0.082397	0.15656	0.029144	-0.087128	0.009308	-0.10468	-0.004272	-0.020142	-0.13046	0.54764	-0.046234	0.097961	0.15076	-0.26062	-0.071869	-0.028076	-0.02655	-0.12543	-0.002289	-0.93216	-0.072174	-0.003052	0.011444
26.808	0.002441	-0.20645	0.018616	-0.003204	0.016174	-0.12924	0.15335	0.005493	-0.097961	0.065918	-0.035248	0.022736	0.009308	-0.041046	-0.012817	-0.008698	-0.012817	-0.10559	0.56137	-0.014648	0.097198	0.15488	-0.3656	-0.10193	-0.019073	-0.013275	-0.16052	-0.011749	-0.21378	0.033875	-0.003052	0.028534
26.809	0.002136	-0.22995	-0.001373	0.017853	0.007477	-0.082092	0.21072	0.007172	-0.063171	0.067444	0.036316	0.017242	0.02594	-0.065918	-0.1889	-0.000916	-0.01297	-0.16861	0.58884	0.005188	0.096741	0.15854	-0.48111	-0.092773	-0.03067	-0.000305	-0.13886	-0.005341	0.27969	0.065155	-0.002747	0.03479
26.81	-0.004425	-0.18967	-0.025482	0.019836	-0.008392	-0.036316	0.15335	0.01236	-0.068665	0.063782	0.080109	0.019836	-0.025177	-0.072632	0.13473	0.013123	-0.012512	-0.13275	0.59738	-0.025787	0.098724	0.15259	-0.45242	-0.065765	-0.031433	0.012207	-0.041962	-0.008392	-0.44266	0.059204	-0.001068	0.011139
26.811	0.00061	-0.16983	-0.011292	0.003052	-0.01236	-0.025787	0.097504	0.011292	-0.069885	0.0383	0.067291	0.009613	0.023041	-0.090332	0.26688	0.000153	-0.022125	-0.078278	0.625	-0.055542	0.11093	0.13092	-0.3923	-0.033722	-0.03891	0.027771	-0.001068	-0.005798	-0.6926	0.03891	0.000305	-0.082245
26.812	0.011139	-0.14496	-0.007782	0.014954	-0.018616	-0.032043	0.053101	0.007172	-0.040283	0.027924	0.00946	0.011597	0.048981	-0.090942	-0.29068	-0.000458	-0.01236	-0.10346	0.74417	-0.11047	0.084229	0.12528	-0.44388	-0.044098	-0.05188	0.054626	-0.069275	-0.005646	0.012665	0.017853	-0.000458	-0.19012
26.813	0.010376	-0.14679	-0.005493	0.010223	0.011139	-0.004425	-0.03067	0.003815	-0.092468	0.033112	-0.079193	0.016479	0.055542	-0.08255	-0.28305	-0.005493	-0.020142	-0.083923	0.72922	-0.062103	0.068817	0.085754	-0.32471	-0.067596	-0.054779	0.070496	-0.047302	-0.001221	0.067749	-0.015411	-0.00412	-0.22293
26.814	0.005951	-0.080261	0.023651	-0.003967	0.0177	0.014801	-0.068359	0.00824	-0.054779	0.042267	-0.17792	0.011749	0.041046	-0.031433	-0.19684	-0.001984	-0.00824	-0.035248	0.62454	0.052032	0.056763	0.088196	-0.077362	-0.035095	-0.049896	0.091705	-0.05722	-0.000458	0.033264	0.020905	-0.002136	-0.24048
26.815	0.00946	-0.096283	0.11383	-0.029144	0.018158	0.013733	0.008392	0.000763	0.10086	0.064087	-0.13397	0.008087	0.015717	-0.0383	-0.24094	-0.003815	-0.007324	-0.025787	0.54169	0.046692	0.052643	0.097198	-0.022888	-0.075684	-0.03067	0.11276	0.053711	-0.003204	0.022278	-0.031738	-0.003052	-0.22278
26.816	-0.001221	-0.15701	-0.032501	-0.014954	0.014954	0.014954	0.10513	-0.003357	0.11383	0.049133	-0.11887	0.004578	0.02243	-0.090332	-0.24429	0.007782	-0.002136	-0.12192	0.55328	0.03891	0.033875	0.087128	0.10254	-0.02655	-0.056458	0.13077	0.16266	-0.006256	-0.10468	-0.056915	-0.000458	-0.20172
26.817	0.004425	-0.17075	-0.0914	-0.021973	0.005646	0.019073	0.18662	-0.002899	0.063019	0.028534	-0.10468	-0.000153	0.035706	-0.12756	-0.1561	0.009308	-0.002136	-0.16373	0.48141	0.018768	0.022278	0.076447	0.08728	0.015106	-0.03479	0.14191	0.11719	-0.001373	-0.066376	-0.077972	-0.001373	-0.16296
26.818	-0.006714	-0.17853	-0.10666	-0.020905	0.016327	0.005035	0.17838	-0.00351	0.047302	-0.018463	-0.093689	0.003967	0.019379	-0.14832	0.004883	0.00824	-0.008545	-0.17929	0.51743	0.013885	0.019379	0.079651	0.1413	0.098114	-0.030518	0.1445	0.10117	0.001678	0.15289	-0.076904	-0.002289	-0.12604
26.819	0.006256	-0.16922	-0.10193	0.009308	0.022736	-0.012512	0.15656	0.00412	0.051575	-0.05127	-0.071564	-0.001678	0.010071	-0.10635	0.18768	0.003052	-0.015869	-0.21164	0.55695	0.033722	0.023041	0.10208	0.13992	0.11002	-0.032959	0.13794	0.13153	-0.000153	0.023346	-0.032196	-0.003357	-0.084686
26.82	0.003815	-0.11704	-0.059814	0.050812	0.020599	-0.010376	0.16098	0.002289	0.046387	-0.046234	-0.043182	-0.003967	0.049591	-0.080566	0.22064	0.006561	-0.005951	-0.10117	0.55466	0.050354	0.01297	0.071716	0.072021	0.033417	-0.00946	0.13351	-0.09491	0.002136	-0.2356	-0.061951	-0.003662	-0.061798
26.821	0.005493	-0.049591	-0.075836	0.040283	0.020142	0.017395	0.14923	0.000305	0.056763	-0.02533	-0.010986	-0.001373	0.036469	-0.083923	0.18158	-0.001221	-0.013123	-0.10239	0.39337	0.099945	0.014343	0.093536	-0.16495	-0.015869	-0.02121	0.12817	0.027924	0.000916	-0.24002	-0.12817	-0.001678	-0.036621
26.822	0.005188	-0.025482	-0.072327	0.01358	0.019684	0.072784	0.16769	0.001526	0.053558	-0.006714	-0.023499	0.000916	-0.037384	-0.11246	0.072174	0.002899	-0.011292	-0.083008	0.58075	0.057526	0.011139	0.087433	-0.1358	0.019379	-0.0354	0.112	0.13534	-0.002136	-0.056915	-0.10132	-0.009003	-0.022583
26.823	0.008087	-0.028534	-0.096893	0.009766	0.016479	0.061798	0.18967	0.000763	0.071564	0.030365	-0.035248	0.016785	-0.054321	0.10452	0.038147	-0.005341	0.000916	-0.067749	0.53101	-0.080109	0.00946	0.097046	-0.11261	0.058136	-0.041046	0.094604	-0.037689	-0.004883	-0.086823	-0.040894	-0.002594	-0.011902
26.824	0.010529	0.0177	-0.10284	-0.004272	0.010071	0.037842	0.19379	0.001831	0.074768	0.11429	-0.005188	0.009308	0.023956	-0.097504	0.03067	0.020752	-0.002441	-0.036926	0.59662	-0.1384	0.001678	0.1033	0.027466	0.046997	-0.026093	0.085754	-0.11353	-0.006409	-0.077667	-0.069427	-0.004578	-0.010681
26.825	0.002136	-0.001678	-0.05722	0.002441	0.011292	0.10391	0.21408	0.003204	0.066986	0.14389	0.024567	0.003052	0.17868	-0.28702	0.025177	0.013733	-0.01236	-0.033875	0.54001	-0.076294	0.007324	0.086212	0.023346	0.019989	-0.023346	0.072937	0.12131	-0.000916	-0.21927	-0.087128	-0.003357	0.000458
